<?xml version="1.0"?>
<svg width="566.93" height="170.04" xmlns="http://www.w3.org/2000/svg" xmlns:svg="http://www.w3.org/2000/svg" xmlns:xlink="http://www.w3.org/1999/xlink" enable-background="new 0 0 566.93 170.04" version="1.1" xml:space="preserve">
 <g class="layer">
  <title>Layer 1</title>
  <path d="m528.52,62.67c-5.12,0 -9.11,-4.11 -9.11,-9.11s4.04,-9.16 9.16,-9.16c5.12,0 9.11,4.11 9.11,9.11c0,4.99 -4.04,9.16 -9.16,9.16zm0.05,-17.36c-4.67,0 -8.2,3.71 -8.2,8.25c0,4.54 3.51,8.2 8.15,8.2c4.67,0 8.2,-3.71 8.2,-8.25c0,-4.54 -3.51,-8.2 -8.15,-8.2zm2.02,9.13l2.58,3.61l-2.18,0l-2.32,-3.31l-1.99,0l0,3.31l-1.82,0l0,-9.56l4.26,0c2.23,0 3.69,1.14 3.69,3.05c0.01,1.57 -0.9,2.53 -2.21,2.9l-0.01,0zm-1.54,-4.31l-2.37,0l0,3.02l2.37,0c1.18,0 1.89,-0.57 1.89,-1.51c0,-0.98 -0.71,-1.51 -1.89,-1.51z" fill="#ffffff" id="svg_9" transform="matrix(1 0 0 1 0 0)"/>
  <text fill="#ffffff" font-family="Times" font-size="24" id="svg_11" stroke-width="0" text-anchor="middle" transform="matrix(4.53516 0 0 4.92283 -885.883 -157.134)" x="273.6" xml:space="preserve" y="57">BuyClub</text>
  <polygon cx="259.2" cy="83.86" fill="#bfbfbf" id="svg_8" orient="point" point="5" points="326.1959228515625,34.42271041870117 328.2404479980469,42.04367446899414 336.1202087402344,41.633113861083984 329.5040283203125,45.932559967041016 332.3294677734375,53.29977798461914 326.1959228515625,48.33602523803711 320.0624084472656,53.29977798461914 322.8878479003906,45.932559967041016 316.27166748046875,41.633113861083984 324.15142822265625,42.04367446899414 326.1959228515625,34.42271041870117 328.2404479980469,42.04367446899414 " r="10.43" r2="3.48" radialshift="0" shape="star" starRadiusMultiplier="3" stroke="#8e8e8e" stroke-width="5" transform="matrix(1 0 0 1 0 0)"/>
  <use fill="#7f7f7f" id="svg_15" stroke="#ff0000" transform="matrix(3.4749 0 0 2.79728 -41.3972 -20.2793)" x="33.82" xlink:href="#svg_14" y="42.02"/>
  <path d="m119.88,92.93c-23.2,0 -42,15.89 -42,35.5c0,19.61 18.8,35.5 42,35.5c23.2,0 42,-15.89 42,-35.5c0,-19.61 -18.8,-35.5 -42,-35.5zm3.63,54.75l0,5l-5.66,0l0,-4.94c-9.28,-1.07 -13.35,-7.52 -13.35,-7.52l5.79,-4.09c0,0 3.69,5.43 10.36,5.43c3.69,0 6.48,-1.67 6.48,-4.52c0,-6.67 -21.24,-5.86 -21.24,-18.22c0,-5.37 5.02,-9.25 11.96,-10.16l0,-5l5.66,0l0,5c4.83,0.54 10.55,2.69 10.55,7.31l0,3.55l-7.5,0l0,-1.72c0,-1.77 -2.67,-2.96 -5.66,-2.96c-3.81,0 -6.61,1.61 -6.61,3.87c0,6.82 21.24,5.16 21.24,18.11c0,5.32 -4.7,9.94 -12.01,10.86z" fill="none" id="svg_27" stroke="#ff0000"/>
  <path d="m75.63,12.3c-32.31,0 -58.5,26.19 -58.5,58.5c0,32.31 26.19,58.5 58.5,58.5c32.31,0 58.5,-26.19 58.5,-58.5c0,-32.31 -26.19,-58.5 -58.5,-58.5zm12.71,87.76c-0.32,0.26 -0.74,0.52 -0.42,0.83c0.31,0.31 -0.36,0.53 -0.36,0.68s0.42,0.99 0.21,1.35c-0.21,0.37 -0.37,0.9 -0.52,1.21c-0.16,0.31 -0.53,0.62 -0.42,1.09c0.1,0.47 -0.42,0.31 -0.42,0.78c0,0.47 0.47,0.26 0.36,0.84c-0.1,0.58 -0.36,0.74 -0.36,1.15c0,0.42 0.26,0.99 0.26,1.15s-0.26,0.68 -0.62,1.09c-0.37,0.42 -0.62,0.68 -0.58,0.94c0.06,0.26 0.42,0.58 0.37,0.74c-0.05,0.15 -0.52,0.68 -0.47,1.04c0.06,0.36 0.52,0.21 0.62,0.47c0.1,0.26 -0.62,0.47 -0.31,0.74c0.31,0.26 0.74,0.21 0.63,0.84c-0.08,0.45 0.26,0.66 0.51,0.8c-3.59,0.89 -7.32,1.42 -11.18,1.42c-25.6,0 -46.42,-20.82 -46.42,-46.42c0,-8.34 2.24,-16.16 6.11,-22.93c0.32,-0.17 0.55,-0.28 0.69,-0.25c0.26,0.05 0.32,0.42 0.74,0.52c0.42,0.1 0.78,-0.31 1.05,-0.47c0.26,-0.16 0.47,-0.78 0.21,-0.73c-0.26,0.05 -0.94,0 -0.94,0s0.74,-0.42 0.74,-0.68s0.1,-0.68 0.52,-0.84c0.41,-0.16 0.41,-0.06 0.15,0.57c-0.26,0.63 0.53,0.37 0.84,0.1s0.52,-0.05 1.09,-0.42c0.58,-0.37 0.58,-0.58 0.89,-0.58c0.31,0 0.89,0.58 1.2,0.37c0.31,-0.21 1.2,0.26 1.73,0.26c0.52,0 2.19,0.68 2.51,0.68c0.31,0 1.26,0.36 1.31,1.04c0.05,0.68 0.36,0.63 0.68,0.63s1.05,0.26 1.05,0.52c0,0.26 -0.21,1.31 0.31,1.57c0.52,0.26 0.99,0.68 1.2,0.58c0.21,-0.1 0,-0.94 -0.26,-1.05c-0.26,-0.1 -0.11,-0.47 -0.21,-0.68c-0.1,-0.21 0.31,-0.21 0.47,0.16c0.16,0.37 0.58,1.05 0.84,1.05c0.26,0 0.84,0.63 0.68,0.99c-0.16,0.37 0.16,0.89 0.63,0.89c0.47,0 1.05,0.73 1.26,0.78c0.21,0.05 0.47,0.31 0.47,0.47c0,0.16 0.26,1.05 0.26,1.41c0,0.36 -0.16,1.83 -0.21,2.4s0.42,1.57 0.94,2.09c0.52,0.52 0.99,1.52 1.3,1.73c0.32,0.21 0.52,0.78 0.99,0.73c0.47,-0.05 0.78,0.31 1.2,1.05c0.42,0.73 0.84,1.93 1.15,2.04c0.31,0.1 0.84,0.47 0.57,0.73c-0.26,0.26 -0.68,0.84 -0.21,0.84c0.47,0 0.63,-0.26 0.99,0.21c0.36,0.47 0.84,0.73 0.78,1.05c-0.05,0.31 0.42,0.41 0.63,0.47c0.21,0.05 0.68,0.99 1.15,0.58c0.47,-0.42 -0.62,-1.04 -0.94,-1.31c-0.31,-0.26 0,-0.83 -0.73,-1.41c-0.73,-0.58 -0.63,-0.99 -1.15,-1.41c-0.52,-0.42 -0.94,-0.78 -0.42,-1.15c0.52,-0.37 0.58,0.37 0.78,0.84c0.21,0.47 1.3,1.41 1.78,1.83c0.47,0.42 1.31,1.88 1.57,1.88s0.99,0.84 0.99,0.84s0.41,0.68 0.26,0.89c-0.16,0.21 0.21,0.99 0.58,1.2c0.36,0.21 1.83,0.89 2.04,0.99c0.21,0.11 0.62,0.89 1.2,0.89c0.57,0 0.99,0.06 1.15,0.21c0.16,0.15 0.62,0.78 0.94,0.42c0.31,-0.37 0.36,-0.53 0.84,-0.53c0.47,0 0.68,0.37 0.94,0.63c0.26,0.26 0.99,0.95 1.36,0.89c0.37,-0.05 0.84,0.42 1.1,0.26s0.68,0.1 0.89,0.21c0.22,0.1 0.94,0.47 0.89,1.09c-0.05,0.63 0.41,0.78 0.73,0.94c0.31,0.16 0.73,0.52 1,0.78c0.26,0.25 0.83,0.31 0.99,0.47c0.16,0.16 0.26,0.47 0.73,0.21c0.47,-0.26 0.37,-0.73 0.37,-0.73s0.52,-0.1 0.78,0.1c0.26,0.2 0.42,0.89 0.58,0.99c0.15,0.1 0.46,0.89 0.25,1.46c-0.21,0.58 -0.15,1.15 -0.37,1.15c-0.21,0 -0.47,0.68 -0.78,0.84c-0.31,0.16 -1.15,0.89 -1.09,1.15c0.05,0.25 0.53,1.04 0.42,1.41c-0.1,0.37 -0.78,0.78 -0.62,1.36c0.15,0.58 1.26,0.74 1.3,1.26c0.06,0.53 0.84,1.68 0.95,2.2c0.1,0.52 0.99,1.09 0.99,1.82c0,0.74 1.26,1.21 1.52,1.26c0.25,0.05 0.73,0.53 1.09,0.68s0.68,0.47 0.94,0.89s0.21,1.05 0.21,1.2c0,0.16 -0.16,1.77 -0.31,2.71c-0.16,0.95 0.2,1.68 -0.11,1.94zm-33.78,-48.63c0.16,0.05 0.47,0.37 0.63,0.37c0.16,0 0.94,0.63 1.15,0.84c0.21,0.21 0.21,0.78 -0.05,0.84s-0.42,-0.58 -0.47,-0.84c-0.05,-0.26 -0.58,-0.26 -0.84,-0.42c-0.26,-0.16 -0.85,-0.93 -0.42,-0.78zm67.4,21.02c-0.58,0.73 -0.52,1.09 -0.78,1.15c-0.26,0.05 0.26,0.26 0.36,0.78c0.09,0.45 -0.26,0.9 0.25,1.32c-1.96,18.59 -14.93,33.95 -32.26,39.39c-0.03,-0.04 -0.08,-0.1 -0.08,-0.14c-0.11,-0.31 -0.11,-0.94 0.26,-1.15c0.37,-0.21 1.26,-0.94 1.46,-1.09c0.21,-0.16 0.52,-0.89 0.37,-0.99c-0.15,-0.1 -0.93,0 -1.05,-0.16c-0.1,-0.16 -0.1,-0.37 0.42,-0.73c0.52,-0.37 0.78,-0.89 0.99,-1.05c0.21,-0.16 0.62,-0.47 0.78,-0.84c0.15,-0.36 -0.17,-0.16 -0.47,-0.16s-0.47,-0.57 -0.47,-0.83s0.78,0.1 1.36,0.21c0.58,0.1 0.31,-0.26 0.26,-0.57c-0.05,-0.31 0.1,-0.84 0.42,-0.68c0.31,0.16 1.93,-0.05 2.14,-0.1c0.21,-0.05 0.78,-0.99 0.99,-1.26c0.21,-0.26 0.26,-0.52 0,-0.68c-0.26,-0.16 -0.58,-0.74 -0.68,-0.89c-0.1,-0.17 -0.16,-1.1 -0.05,-1.37c0.1,-0.25 0,1.52 0.73,1.73c0.74,0.21 1.15,0.31 1.83,-0.31c0.68,-0.62 1.2,-1.05 1.26,-1.46c0.05,-0.42 0.21,-0.84 0.47,-0.99c0.26,-0.16 0.42,0.41 0.73,-0.26c0.31,-0.68 0.63,-0.63 0.94,-1.2c0.31,-0.58 -0.52,-1.31 0.1,-1.73c0.63,-0.41 1.73,-0.94 1.73,-0.94s0.31,-0.16 0.94,-0.31c0.62,-0.15 1.3,-0.06 1.51,-0.36c0.21,-0.32 0.42,-0.99 0.73,-1.36c0.32,-0.37 0.68,-0.94 0.52,-1.2c-0.16,-0.26 0.42,-1.42 0.37,-1.73c-0.05,-0.31 -0.52,-1.05 0.26,-1.67s1.62,-1.57 1.67,-1.83c0.05,-0.26 0.68,-1.36 0.62,-1.89c-0.05,-0.52 -0.62,-1.15 -0.99,-1.31c-0.37,-0.15 -1.15,-0.2 -1.47,-0.62s-1.2,-0.84 -1.52,-0.73c-0.31,0.1 -0.84,0.21 -1.26,-0.06c-0.42,-0.25 -1.09,-0.58 -1.36,-0.78c-0.27,-0.21 -0.94,-0.36 -1.26,-0.36s-0.26,-0.21 -0.73,0.41c-0.47,0.63 0,0.84 -0.84,0.73c-0.84,-0.1 0.1,-0.15 0.58,-0.78c0.46,-0.62 -0.06,-0.99 -0.58,-0.83c-0.52,0.16 -0.16,0.47 -0.99,0.63c-0.83,0.15 -0.83,-0.37 -0.31,-0.47c0.52,-0.1 1.46,-0.58 1.46,-0.78c0,-0.21 -0.1,-0.79 -0.52,-0.79s-0.31,-0.52 -0.94,-1.2c-0.63,-0.68 -1.41,-1.1 -2.04,-1c-0.62,0.1 -1.09,0.26 -1.41,-0.31c-0.31,-0.58 -0.68,-0.68 -0.89,-0.99c-0.21,-0.31 -0.73,0 -0.89,-0.16s-0.16,-0.16 -0.16,-0.16s-0.68,0.16 -0.31,-0.31c0.36,-0.47 0.52,-1.36 0.36,-1.31c-0.15,0.05 -0.42,0.79 -0.68,0.74c-0.26,-0.05 -0.06,-0.16 -0.58,-0.47c-0.52,-0.31 -1.36,-0.05 -1.36,0.21c0,0.26 -0.26,0.47 -0.26,0.47s-0.16,-0.15 -0.31,-0.47c-0.16,-0.31 -0.89,-0.37 -1.26,-0.05c-0.36,0.31 -0.57,-0.79 -0.83,-0.79s-0.78,0.26 -1.05,0.74c-0.26,0.47 -0.15,1.15 -0.37,1.09c-0.2,-0.05 -0.25,-0.94 -0.2,-1.26c0.05,-0.32 0.62,-0.84 0.2,-0.94c-0.41,-0.1 -1.04,0.52 -1.3,0.58c-0.26,0.05 -0.78,0.42 -1.1,0.84c-0.31,0.41 -0.47,0.68 -0.78,0.83c-0.31,0.16 -0.78,0 -0.67,-0.16c0.1,-0.16 -0.89,-0.73 -1.05,-0.52c-0.16,0.21 -0.62,0.37 -1.09,0.58c-0.47,0.21 -0.89,-0.26 -0.99,-0.47s-0.32,-0.26 -0.37,-0.94c-0.05,-0.68 0.11,-1.41 0.26,-1.83c0.15,-0.42 -0.78,-1.26 -1.15,-1.21c-0.37,0.06 -0.73,0.42 -1.09,0.37c-0.37,-0.05 -0.21,-0.15 -0.78,-0.15c-0.58,0 -0.1,-0.1 0,-0.58c0.1,-0.47 -0.21,-1.1 0.37,-1.52c0.57,-0.42 0.37,-1.41 0,-1.46c-0.37,-0.06 -1.05,0.16 -1.52,0.1c-0.47,-0.06 -0.84,0.37 -0.68,0.83c0.16,0.47 -0.26,0.78 -0.42,0.74c-0.16,-0.05 -0.36,-0.31 -0.94,0.1c-0.57,0.41 -0.78,0.26 -1.36,-0.21c-0.58,-0.47 -1.2,-0.94 -1.31,-1.67c-0.1,-0.73 -0.16,-1.47 0.05,-1.88c0.21,-0.42 0.21,-1.15 -0.1,-1.26c-0.31,-0.1 0.36,-0.62 0.73,-0.73c0.37,-0.1 0.94,-0.58 1.05,-0.78c0.1,-0.21 0.63,-0.16 1.2,-0.16c0.58,0 0.68,0 1.26,0.31c0.58,0.31 0.68,-0.16 0.68,-0.31c0,-0.16 0.21,-0.47 0.84,-0.42c0.63,0.05 1.51,-0.21 1.67,-0.05s0.47,0.78 0.78,0.58c0.32,-0.21 0.42,-0.58 0.53,0.06c0.1,0.62 0.36,1.57 0.84,1.73c0.47,0.16 0.21,0.78 0.68,0.83c0.46,0.05 0.68,-0.99 0.53,-1.36c-0.16,-0.36 -0.47,-1.46 -0.74,-1.72c-0.26,-0.26 -0.26,-0.94 0.26,-1.15c0.52,-0.21 1.78,-1.26 2.14,-1.57c0.37,-0.32 1.36,-0.58 1.05,-1c-0.31,-0.42 -0.42,-0.68 -0.42,-0.99s0.31,-0.21 0.47,0s0.78,-0.31 0.62,-0.58c-0.15,-0.26 -0.1,-0.62 0.26,-0.58c0.37,0.05 0.47,-0.26 0.31,-0.47c-0.16,-0.21 0.37,-0.47 0.73,-0.37c0.37,0.1 1.31,-0.05 1.47,-0.26c0.15,-0.21 -0.31,-0.42 -0.31,-0.84c0,-0.42 0.62,-0.78 0.99,-0.84c0.37,-0.05 0.83,0 0.89,-0.16c0.05,-0.16 0.58,-0.58 0.62,-0.21c0.06,0.37 0,0.99 0.42,0.99c0.42,0 0.93,-0.47 1.09,-0.52c0.15,-0.05 1.15,-0.26 1.36,-0.31c0.21,-0.05 1.46,-0.16 1.31,-0.52c-0.16,-0.36 -0.31,-0.73 -0.47,-0.89c-0.16,-0.16 -0.31,0.05 -0.52,0.31c-0.21,0.26 -0.58,0.26 -0.68,0.05c-0.1,-0.21 0.05,-0.83 -0.31,-0.63c-0.37,0.21 -0.42,0.42 -0.63,0.31c-0.21,-0.1 -0.41,-0.47 -0.41,-0.47s0.52,-0.26 0.15,-0.73c-0.36,-0.47 -0.89,-0.37 -1.41,-0.1c-0.52,0.26 -0.47,0.21 -1.1,0.36s-0.94,0.31 -0.94,0.31s0.84,-0.52 1.2,-0.84c0.37,-0.31 0.84,-0.47 1.15,-0.78c0.31,-0.31 1.15,0.16 1.15,0.16s0.42,-0.42 0.42,-0.16s-0.11,0.94 0.21,0.94c0.32,0 1.2,-0.42 0.85,-0.53c-0.37,-0.1 0.52,0 0.88,-0.26c0.37,-0.26 0.78,-0.26 0.99,-0.36c0.21,-0.1 0.37,-0.58 0.73,-0.58c0.37,0 0.52,0.47 0,0.78s-0.58,1.1 -0.84,1.31c-0.26,0.21 -0.1,0.47 0.31,0.42c0.42,-0.05 0.78,0.05 1.15,-0.05s0.58,0.1 0.68,0.26c0.1,0.16 0.42,-0.16 0.42,-0.16s0.68,-0.16 0.89,0.1c0.21,0.26 0.37,-0.16 0.21,-0.42c-0.16,-0.26 -0.37,-0.52 -0.52,-0.84c-0.16,-0.31 -0.37,-0.42 -0.78,-0.31c-0.42,0.1 -0.52,-0.1 -0.78,-0.26c-0.26,-0.16 -0.47,0.21 -0.26,-0.16c0.21,-0.36 0.31,-0.47 0.47,-0.78c0.16,-0.31 0.84,-0.89 0.16,-1.04c-0.68,-0.16 -0.89,-0.26 -0.99,-0.58c-0.1,-0.31 -0.89,-0.89 -1.09,-0.89c-0.21,0 -0.94,0 -0.99,-0.26c-0.05,-0.26 -0.58,-0.84 -0.84,-1.1c-0.26,-0.26 -1.26,-1.41 -1.41,-1.52c-0.16,-0.1 -0.37,-0.05 -0.84,0.58c-0.47,0.63 -0.89,0.74 -1.26,0.58c-0.37,-0.16 -0.42,-0.1 -0.78,-0.52c-0.37,-0.42 0.36,-0.47 0.21,-0.73c-0.16,-0.26 -0.99,-0.37 -1.52,-0.42c-0.52,-0.05 -0.89,-0.63 -1.67,-0.68c-0.78,-0.05 -1.72,0.1 -1.98,0.1c-0.26,0 -0.26,0.37 -0.36,0.94c-0.11,0.58 0.36,0.73 -0.11,0.84c-0.47,0.1 -0.68,0.16 -0.21,0.37c0.47,0.21 1.1,1.05 1.1,1.05s0,0.47 -0.37,0.73c-0.36,0.26 -0.73,0.52 -0.94,0.21c-0.21,-0.32 -0.78,-0.26 -0.62,0.05c0.15,0.31 0.47,0.47 0.47,0.78c0,0.31 0.47,1.09 0.16,1.36c-0.31,0.26 -0.68,0.06 -0.94,0.1s-0.53,-0.42 -0.31,-0.52c0.21,-0.1 -0.06,-0.89 -0.06,-0.89s-0.62,0.89 -0.58,0.42c0.06,-0.47 -0.26,-0.52 -0.26,-0.89c0,-0.37 -0.32,-0.52 -0.78,-0.42c-0.47,0.1 -1.05,-0.16 -1.94,-0.32c-0.89,-0.16 -1.25,-0.26 -1.98,-0.63c-0.73,-0.37 -0.99,-0.1 -1.36,-0.05c-0.37,0.05 -0.21,-0.73 -0.68,-0.83c-0.47,-0.11 -0.73,0.1 -0.83,-0.58c-0.1,-0.68 0.16,-0.84 1.3,-1.57c1.15,-0.73 0.99,-1.05 1.88,-1.15c0.89,-0.1 1.31,0.1 1.31,-0.16s0.21,-1.31 0.21,-0.78s1.05,0.56 0.58,0.92c-0.47,0.37 -0.21,0.42 0.16,0.42c0.37,0 1.04,-0.37 1.04,-0.37s0.84,-0.37 1.05,-0.05c0.21,0.31 0.21,0.63 0.58,0.63s1.15,-0.42 0.47,-0.78c-0.68,-0.37 -1.09,-0.31 -1.51,-0.73s-0.31,-0.26 -0.78,-0.16c-0.47,0.1 -0.47,-0.16 -0.63,-0.16s-0.42,0.1 -0.52,-0.1c-0.1,-0.21 0.06,-0.26 0.58,-0.26c0.52,0 1.15,0.16 1.15,0.16s0.62,-0.21 0.78,-0.26c0.16,-0.05 0.99,-0.16 0.84,-0.62c-0.16,-0.47 -0.68,-0.47 -0.84,-0.63s0.31,-0.36 0.58,-0.47c0.26,-0.1 0.99,0 0.99,0s0.47,0.05 0.47,-0.16s-0.11,-0.47 0.21,-0.31s0,0.63 0.47,0.52c0.47,-0.1 0.58,0 0.83,0.16c0.26,0.16 -0.05,0.78 -0.31,0.89c-0.26,0.1 -0.68,0.31 -0.1,0.36c0.58,0.06 0.99,0.06 0.99,0.06s0.37,-0.37 0.53,-0.68c0.15,-0.31 0.42,-0.1 0.62,0c0.21,0.1 0.99,0.26 0.26,0.47c-0.74,0.21 -0.89,0.47 -1.05,0.73c-0.15,0.26 -0.21,0.42 -0.89,0.26c-0.68,-0.16 -1.05,-0.1 -1.2,0.16c-0.16,0.26 -0.05,1.1 0.21,0.99c0.25,-0.1 0.52,-0.1 0.83,-0.21c0.31,-0.1 1.57,0.1 1.88,0.05c0.31,-0.05 0.84,0.52 1,0.42c0.16,-0.1 0.47,0.21 0.78,0.42c0.31,0.21 0.21,-0.47 0.78,-0.05c0.58,0.42 0.26,0.42 0.58,0.42c0.31,0 0.99,0.05 0.99,0.05s0.06,-0.52 0.58,-0.42c0.52,0.1 0.99,0.68 0.93,0.26c-0.05,-0.41 0.05,-0.73 -0.36,-1.04c-0.42,-0.31 -1.09,-0.52 -1.2,-0.68c-0.1,-0.16 -0.21,-0.37 -0.05,-0.47c0.16,-0.1 0.89,0.05 1.3,0.32c0.42,0.26 0.78,0.52 1.1,0.31c0.31,-0.21 0.68,-0.31 0.84,-0.47c0.15,-0.16 0.52,-0.63 0.52,-0.63s-1.57,-0.21 -1.78,-0.47c-0.21,-0.26 -0.95,-0.63 -1.16,-0.63s-0.78,0.37 -0.99,-0.16s-0.21,-1.15 -0.42,-1.2c-0.2,-0.05 -2.4,-0.37 -2.71,-0.52c-0.31,-0.16 -1.57,-0.52 -2.04,-0.78s-1.15,-0.63 -1.57,-0.63c-0.42,0 -2.15,0.21 -2.46,0.16c-0.31,-0.05 -1.26,0.1 -1.62,0.16c-0.37,0.05 0.47,0.73 -0.31,0.89c-0.78,0.16 -0.68,0.26 -0.52,-0.52c0.15,-0.78 -0.53,-0.99 -1.2,-0.68c-0.68,0.31 -1.78,0.52 -1.52,0.89c0.26,0.37 -0.05,0.63 0.47,0.99c0.52,0.37 0.74,0.47 1.41,0.42c0.68,-0.05 1.36,0.1 1.36,0.1s0,0.63 -0.26,0.73c-0.26,0.1 -0.68,0.1 -0.79,0.42c-0.1,0.31 -0.62,0.47 -0.62,0.31s0.26,-0.68 -0.1,-0.94c-0.36,-0.26 -0.47,-0.31 -0.89,-0.05c-0.42,0.26 -0.47,0.37 -0.68,-0.05c-0.21,-0.42 -0.84,-0.78 -0.84,-0.78s-0.42,-0.52 -0.73,-0.78c-0.31,-0.26 -0.89,-0.21 -0.94,0.05c-0.05,0.26 0.1,0.52 0.31,0.99c0.21,0.47 0.42,1.36 0.05,1.41c-0.37,0.05 -0.42,0.1 -0.78,0.21c-0.37,0.1 -0.52,-0.16 -0.52,-0.58s-0.16,-0.78 -0.05,-0.94c0.1,-0.16 -0.42,0.11 -0.94,0c-0.52,-0.1 -0.94,0.21 -0.42,0.37c0.52,0.16 0.63,0.78 0.16,0.94c-0.47,0.16 -2.25,0 -2.83,0s-1.41,0.16 -1.57,-0.16c-0.16,-0.31 0.47,-0.52 0.84,-0.52c0.37,0 1.46,0.05 1.88,-0.52c0.42,-0.58 -0.52,-0.68 -0.94,-0.68c-0.42,0 -0.74,-0.16 -1.2,-0.62c-0.47,-0.47 0.31,-0.78 0.21,-0.99c-0.1,-0.21 -0.63,-0.06 -1.09,-0.06c-0.47,0 -1.2,-0.36 -1.2,0.06c0,0.42 0.58,1.62 0.21,1.36c-0.37,-0.26 -0.31,-0.63 -0.58,-0.94c-0.26,-0.31 -0.68,-0.26 -1.2,-0.21c-0.52,0.05 -1.41,0.21 -1.67,0.16c-0.26,-0.05 -0.05,-0.05 -0.63,-0.31c-0.57,-0.26 -0.84,-0.21 -1.26,-0.47c-0.41,-0.27 -0.05,-0.37 -0.78,-0.42c-0.73,-0.05 -0.68,0.36 -1.41,0.26c-0.73,-0.1 -0.94,0.05 -1.67,0c-0.73,-0.05 -1.09,-0.1 -1.2,0.26c-0.1,0.37 -0.31,0.99 -0.63,0.99c-0.31,0 -0.68,0.37 0.31,0.42c0.99,0.05 0.42,0.52 1.31,0.47c0.89,-0.05 1.67,-0.05 1.88,-0.47c0.21,-0.42 0.37,-0.42 0.47,-0.26c0.1,0.16 0.89,1.09 0.89,1.09s0.53,0.42 0.74,0.52c0.21,0.1 -0.21,0.58 -0.63,0.31c-0.42,-0.26 -1.2,-0.21 -1.52,-0.47c-0.31,-0.26 -1.73,-0.26 -2.09,-0.21c-0.36,0.05 -0.99,-0.16 -1.2,-0.16c-0.21,0 -0.89,0.52 -0.89,0.52s-0.26,-0.42 -0.41,-0.63c-0.16,-0.21 -0.42,0.21 -0.63,0.26c-0.21,0.05 -0.84,-0.42 -1.47,-0.21c-0.63,0.21 -0.42,0.42 -1.31,0.37s-1.09,-0.21 -1.41,-0.16c-0.32,0.05 -0.32,0.05 -0.32,0.05s0.05,0.21 -0.31,0.42c-0.37,0.21 -0.63,0.47 -0.89,0.16c-0.26,-0.31 -0.41,-0.31 -0.57,-0.37c-0.16,-0.05 -0.47,-0.31 -1.15,-0.16c-0.68,0.16 -1.73,-0.21 -1.93,-0.21c-0.16,0 -1.26,-0.06 -1.98,-0.13c8.49,-9.23 20.62,-15.05 34.12,-15.05c8.57,0 16.57,2.37 23.47,6.43c-0.47,0.29 -1.28,0.24 -1.56,0.09c-0.31,-0.17 -0.64,-0.31 -1.91,-0.25c-1.28,0.07 -2.68,0.49 -2.39,0.91c0.29,0.42 -0.57,0.66 -0.79,0.45c-0.22,-0.21 -1.24,0.24 -1.18,0.66c0.06,0.42 -0.16,0.91 -0.7,0.8c-0.54,-0.11 -0.92,0.24 -0.95,0.59c-0.03,0.35 -1.24,0.59 -1.34,0.59c-0.1,0 -1.66,-0.03 -1.09,0.38c0.39,0.28 0.6,0.11 1.09,0.21c0.48,0.1 0.86,0.87 1.11,0.98c0.25,0.1 0.6,0 0.76,-0.21c0.16,-0.21 0.38,-0.94 0.38,-0.94s0,0.7 0.39,0.84c0.38,0.14 1.33,-0.1 1.59,-0.07c0.26,0.03 1.76,0.25 2.17,0.45c0.42,0.21 1.43,0.35 1.72,0.8c0.29,0.45 0.32,2.02 0.48,2.2c0.16,0.17 0.7,-0.56 0.83,-0.73c0.12,-0.18 0.8,-0.07 1.02,0.17c0.23,0.25 0.73,0.84 0.7,1.08c-0.04,0.25 -0.13,0.63 -0.32,0.49c-0.19,-0.14 -0.51,-0.1 -0.39,-0.38c0.13,-0.28 0.19,-0.87 -0.06,-0.87c-0.26,0 -0.48,0 -0.48,0s-0.48,-0.14 -0.8,0.38s-0.06,1.05 0.16,1.05s0.74,0 0.74,0.14c0,0.14 -0.55,0.56 -0.52,0.81c0.04,0.25 0.44,1.08 0.58,1.26c0.12,0.17 0.79,0.35 0.98,0.39c0.2,0.03 -0.45,0.07 -0.28,0.31c0.16,0.25 0.41,0.84 0.76,0.98c0.35,0.14 1.34,0.76 1.46,1.05c0.13,0.28 0.89,-0.21 1.05,-0.25c0.16,-0.03 0.13,0.73 0.58,0.77c0.44,0.03 0.6,-0.07 0.99,-0.39s0.29,-0.73 0.32,-1.05c0.04,-0.31 0,-0.56 0.42,-0.45c0.42,0.1 0.64,-0.07 0.6,-0.42c-0.03,-0.35 -0.38,-0.77 0.28,-0.87c0.67,-0.1 1.02,-0.56 1.44,-0.56c0.41,0 1.57,0.17 1.69,0c0.13,-0.17 0.67,-0.98 1.02,-1.01c0.27,-0.03 0.9,-0.08 1.55,-0.17c6.37,7.59 10.31,17.24 10.76,27.79c-0.47,0.64 -0.05,1.23 0.08,1.64c0,0.12 0.02,0.23 0.02,0.35c0,0.55 -0.06,1.08 -0.08,1.63c0,0.01 0,0.02 -0.01,0.02zm-39.11,-17.41c-0.26,0.05 -0.68,-0.21 -0.68,-0.58s-0.37,0.68 -0.16,0.99c0.21,0.31 -0.42,0.68 -0.62,0.68s-0.37,-0.47 -0.31,-0.94c0.06,-0.47 -0.31,-0.89 -0.89,-0.84c-0.58,0.06 -0.84,0.52 -1.04,0.68c-0.21,0.16 -0.21,1.04 -0.16,1.26s0.05,0.95 -0.47,0.89c-0.47,-0.05 -0.37,-0.94 -0.32,-1.26c0.06,-0.31 -0.16,-1.1 0.06,-1.51c0.21,-0.42 0.83,-0.58 1.26,-0.63s1.3,0.26 1.46,0.21c0.16,-0.06 0.89,-0.06 1.26,0c0.37,0.04 0.89,0.99 0.63,1.04zm0.94,0.16c0.16,0.1 1.25,-0.16 1.47,0.1c0.21,0.26 -0.22,0.31 -0.74,0.52c-0.52,0.21 -0.68,0.16 -0.89,0.42s-0.89,0.36 -1.2,0.68c-0.31,0.32 -0.87,0.5 -0.99,0.26c-0.16,-0.31 0.05,-0.16 0.1,-0.31c0.05,-0.16 0.99,-0.52 0.99,-0.52s1.11,-1.26 1.27,-1.15zm-4.18,-1.83c-0.15,0.05 -0.73,-0.1 -1.21,-0.1c-0.47,0 -0.37,-0.31 -0.58,-0.26c-0.21,0.05 -0.68,0.16 -0.99,0.31c-0.31,0.16 -0.84,0.12 -0.84,-0.16c0,-0.42 0.21,-0.31 0.89,-0.58c0.68,-0.26 1.42,-0.99 1.73,-0.68c0.31,0.31 0.89,0.68 1.26,0.73c0.37,0.06 -0.1,0.68 -0.26,0.73zm-5.35,-16.22c-0.32,0.1 -1.4,0.56 -1.29,0.8c0.04,0.09 0.31,0.28 0.76,0.21c0.45,-0.07 1.11,-0.14 1.43,-0.17c0.31,-0.04 0.38,-0.56 0.04,-0.59c-0.35,-0.04 -0.63,-0.35 -0.94,-0.25zm-3.87,0.42c-0.25,0.1 -0.98,-0.17 -1.36,0.07c-0.25,0.15 -0.1,0.66 0.28,0.69c0.38,0.04 1.04,-0.24 1.11,-0.03c0.07,0.21 0.31,1.15 0.94,0.84c0.63,-0.31 0.59,-0.59 0.76,-0.63c0.17,-0.04 -0.03,-0.8 -0.31,-0.98c-0.28,-0.17 -1.18,-0.07 -1.42,0.04zm-1.26,-2.96c0.07,0.18 -0.03,0.31 0.45,0.38c0.49,0.07 0.7,0.14 0.98,0.14c0.28,0 0.17,-0.45 -0.07,-0.76c-0.25,-0.31 -0.17,-0.28 -0.8,-0.45c-0.63,-0.17 -1.26,-0.17 -1.67,-0.14c-0.42,0.04 -0.87,-0.07 -0.98,0.42c-0.05,0.25 0.28,0.45 0.7,0.45s1.32,-0.21 1.39,-0.03zm0.91,1.92c0.17,0.38 0.17,0.21 0.66,0.25c0.48,0.04 0.87,-0.49 0.9,-0.66c0.04,-0.18 -0.25,-0.52 -0.91,-0.45c-0.66,0.07 -2.68,-0.1 -2.96,0.14c-0.27,0.23 0,0.94 -0.1,1.01c-0.1,0.07 0.04,0.38 0.31,0.31c0.28,-0.07 0.42,-0.73 0.63,-0.73c0.21,0 1.29,-0.24 1.47,0.14zm-6.56,-1.43c0.21,0.17 0.74,0.03 0.7,-0.14c-0.03,-0.17 0.21,-0.87 -0.21,-0.91c-0.42,-0.03 -1.01,0.39 -1.64,0.6c-0.41,0.13 -0.31,0.52 -0.04,0.52s0.98,-0.25 1.18,-0.07zm2.97,0.63c-0.35,0.17 -0.46,0.28 -0.77,0.21c-0.31,-0.07 -0.31,-0.63 -0.87,-0.52c-0.56,0.1 -0.66,0.42 -0.83,0.56s-0.56,0.25 -0.7,0.17c-0.14,-0.07 -0.94,-0.52 -0.94,-0.52s-1.67,-0.07 -1.74,-0.28c-0.07,-0.21 -0.35,-0.56 -1.11,-0.49s-2.09,0.52 -2.3,0.52c-0.21,0 0.25,0.42 -0.04,0.42c-0.28,0 -0.62,-0.03 -0.73,0.28c-0.07,0.21 0.31,0.21 0.76,0.21c0.45,0 1.19,0 1.4,-0.1c0.21,-0.1 1.26,-0.35 1.22,-0.04c-0.04,0.32 0.42,0.8 0.66,0.73c0.25,-0.07 0.74,-0.52 0.98,-0.35c0.25,0.17 0.28,0.59 0.52,0.7c0.25,0.1 0.91,0.1 1.22,0c0.31,-0.11 1.18,-0.11 1.57,-0.04c0.38,0.07 1.5,0.28 1.61,0.07c0.1,-0.21 0.42,-0.25 0.45,-0.45s0.21,-0.87 0.21,-0.87s-0.21,-0.39 -0.55,-0.21zm17.65,36.05c-0.48,0.08 -0.37,1.01 0.21,0.85c0.58,-0.17 0.27,-0.93 -0.21,-0.85zm4.55,-1.25c-0.42,-0.1 -0.89,0 -1.2,0.05c-0.31,0.05 -1.2,0.84 -1.2,0.84s0.58,0.1 0.94,0.1c0.37,0 0.58,0.21 0.89,0.36c0.31,0.16 0.89,-0.21 1.09,-0.21c0.21,0 0.47,0.63 0.53,-0.05c0.06,-0.68 -0.62,-0.99 -1.04,-1.09zm-14.57,-33.9c-0.17,-0.42 -1.04,-0.56 -1.22,-0.14c-0.15,0.37 1.4,0.56 1.22,0.14zm9.97,31.33c0.58,-0.1 0.26,-0.58 -0.21,-0.52c-0.47,0.05 -0.37,0.63 0.21,0.52zm6.95,3.23c-0.48,0.09 -0.37,1.02 0.21,0.85c0.58,-0.17 0.27,-0.93 -0.21,-0.85zm-6.33,-1.56c-0.36,0.05 -1.15,-0.36 -1.57,-0.73c-0.42,-0.37 -1.2,-0.37 -1.52,-0.37c-0.31,0 -1.57,0.37 -1.57,0.37c-0.05,0.52 0.47,0.37 1.1,0.37s1.73,-0.1 1.93,0.16c0.21,0.26 1.15,0.68 1.42,0.89c0.26,0.21 1.09,0.26 1.15,0.05s-0.57,-0.78 -0.94,-0.73zm-6.23,-33.39c-0.52,-0.04 -1.19,-0.04 -1.61,0c-0.42,0.03 -0.73,-0.28 -1.05,-0.45c-0.31,-0.17 -1.01,-0.73 -1.42,-0.8c-0.42,-0.07 -0.35,-0.07 -1.22,-0.28c-0.44,-0.11 -1.18,-0.25 -1.18,-0.35c0,-0.1 -0.21,0.49 0.17,0.66c0.38,0.17 1.01,0.49 1.46,0.66c0.46,0.17 1.32,0.21 1.61,0.56c0.28,0.35 1.22,0.63 1.22,0.63l1.11,0.1c0,0 0.77,-0.17 1.57,-0.1c0.8,0.07 1.98,0.17 2.65,0.14c0.66,-0.03 0.76,-0.25 0.84,-0.38c0.06,-0.14 -1.22,-0.42 -1.54,-0.38c-0.31,0.02 -2.09,0.02 -2.61,-0.01zm1.95,8.02c-0.14,0.16 0.63,0.38 0.77,0.17c0.14,-0.21 -0.41,-0.56 -0.77,-0.17zm2.34,0.73c0.35,-0.14 0.17,-0.56 -0.32,-0.42c-0.56,0.16 -0.04,0.56 0.32,0.42z" fill="none" id="svg_31" stroke="#ff0000"/>
 </g>
 <defs>
  <symbol height="24" id="svg_14" width="24" xmlns="http://www.w3.org/2000/svg"/>
 </defs>
</svg>