<?xml version="1.0"?>
<svg width="400" height="170.04" xmlns="http://www.w3.org/2000/svg" xmlns:svg="http://www.w3.org/2000/svg" xmlns:xlink="http://www.w3.org/1999/xlink" enable-background="new 0 0 566.93 170.04" version="1.1" xml:space="preserve">
 <g class="layer">
  <title>Layer 1</title>
  <path d="m528.52,62.67c-5.12,0 -9.11,-4.11 -9.11,-9.11s4.04,-9.16 9.16,-9.16c5.12,0 9.11,4.11 9.11,9.11c0,4.99 -4.04,9.16 -9.16,9.16zm0.05,-17.36c-4.67,0 -8.2,3.71 -8.2,8.25c0,4.54 3.51,8.2 8.15,8.2c4.67,0 8.2,-3.71 8.2,-8.25c0,-4.54 -3.51,-8.2 -8.15,-8.2zm2.02,9.13l2.58,3.61l-2.18,0l-2.32,-3.31l-1.99,0l0,3.31l-1.82,0l0,-9.56l4.26,0c2.23,0 3.69,1.14 3.69,3.05c0.01,1.57 -0.9,2.53 -2.21,2.9l-0.01,0zm-1.54,-4.31l-2.37,0l0,3.02l2.37,0c1.18,0 1.89,-0.57 1.89,-1.51c0,-0.98 -0.71,-1.51 -1.89,-1.51z" fill="#ffffff" id="svg_9" transform="matrix(1 0 0 1 0 0)"/>
  <text fill="#ffffff" font-family="Times" font-size="24" id="svg_11" stroke-width="0" style="cursor: move;" text-anchor="middle" transform="matrix(4.53516 0 0 4.92283 -885.883 -157.134)" x="239.42" xml:space="preserve" y="59.44">BuyClub</text>
  <polygon cx="259.2" cy="83.86" fill="#bfbfbf" id="svg_8" orient="point" point="5" points="167.1959228515625,57.42271041870117 169.24044799804688,65.04367446899414 177.12020874023438,64.63311386108398 170.5040283203125,68.93255996704102 173.3294677734375,76.29977798461914 167.1959228515625,71.33602523803711 161.06240844726562,76.29977798461914 163.88784790039062,68.93255996704102 157.27166748046875,64.63311386108398 165.15142822265625,65.04367446899414 167.1959228515625,57.42271041870117 169.24044799804688,65.04367446899414 " r="10.43" r2="3.48" radialshift="0" shape="star" starRadiusMultiplier="3" stroke="#8e8e8e" stroke-width="5" transform="matrix(1 0 0 1 0 0)"/>
  <use fill="#7f7f7f" id="svg_15" stroke="#ff0000" transform="matrix(3.4749 0 0 2.79728 -41.3972 -20.2793)" x="33.82" xlink:href="#svg_14" y="42.02"/>
 </g>
 <defs>
  <symbol height="24" id="svg_14" width="24" xmlns="http://www.w3.org/2000/svg"/>
 </defs>
</svg>